<svg xmlns="http://www.w3.org/2000/svg" width="120.5" height="60.5" viewBox="0 0 31.882 16.007"><path fill="none" stroke="#777" stroke-linecap="round" stroke-width=".132" d="M1.497.066h11.426c.792 0 1.43.638 1.43 1.43v13.015c0 .792-.638 1.43-1.43 1.43H1.497c-.793 0-1.43-.638-1.43-1.43V1.497c0-.793.637-1.43 1.43-1.43zm17.463 0h11.425c.793 0 1.43.638 1.43 1.43v13.015c0 .792-.637 1.43-1.43 1.43H18.96c-.792 0-1.43-.638-1.43-1.43V1.497c0-.793.638-1.43 1.43-1.43z"/><path fill="red" d="m20.329 9.046.366-1.125h1.78l.367 1.125h1.118l-1.701-4.934h-1.344L19.21 9.046zm.631-1.94.607-1.866h.039l.607 1.867z" aria-label="A" style="font-variant-ligatures:none" transform="matrix(1.0361 0 0 .96516 .066 -1.521)"/><path fill="#fff" d="m3.11 8.731.354-1.086h1.718l.354 1.086h1.079L4.973 3.97H3.675L2.031 8.73zm.61-1.872.585-1.802h.038l.586 1.802z" aria-label="A" style="font-variant-ligatures:none" transform="translate(.066 -1.521)"/><path fill="#fff" d="M7.357 5.376c0 .585.453 1.04 1.04 1.04.327 0 .662-.108.807-.396h.024c0 .327-.359.597-.504.75-.177.184-.068.44.16.44h1.561c.227 0 .335-.256.158-.44-.145-.153-.504-.423-.504-.75h.027c.142.288.48.396.804.396.587 0 1.042-.455 1.042-1.04 0-1.102-1.465-1.567-2.053-2.752-.049-.1-.125-.177-.256-.177-.13 0-.204.076-.255.177-.588 1.185-2.05 1.65-2.05 2.752"/><path fill="red" d="M27.623 7.21c.128 0 .193-.086.323-.263l1.389-1.853a.45.45 0 0 0 .1-.265.44.44 0 0 0-.1-.266l-1.389-1.855c-.13-.175-.195-.26-.323-.26-.125 0-.19.085-.32.26l-1.389 1.855a.44.44 0 0 0-.1.266c0 .093.037.179.1.265l1.388 1.853c.13.177.196.263.321.263"/><path fill="#fff" d="M4.281 13.156c.839 0 1.345-.639 1.347-1.738C5.63 10.327 5.117 9.7 4.28 9.7s-1.345.624-1.347 1.717c-.003 1.096.507 1.736 1.347 1.738m0-.585c-.383 0-.63-.384-.628-1.153.001-.757.247-1.138.628-1.138.38 0 .627.38.627 1.138.002.769-.246 1.153-.627 1.153m4.367-2.978H8.05l-1.074 3.993h.597zm2.838.156h-.663l-.825.522v.626l.763-.48h.02v2.667h.705z" aria-label="0/1" style="font-variant-ligatures:none"/><path fill="#fff" d="M21.28 13.156c.839 0 1.345-.639 1.347-1.738.002-1.091-.511-1.717-1.347-1.717-.837 0-1.345.624-1.347 1.717-.003 1.096.507 1.736 1.347 1.738m0-.585c-.383 0-.63-.384-.628-1.153.001-.757.247-1.138.628-1.138.38 0 .627.38.627 1.138.002.769-.246 1.153-.627 1.153m4.366-2.979h-.598l-1.074 3.993h.597zm1.387 3.491h2.378v-.577h-1.4v-.023l.486-.477c.686-.625.87-.938.87-1.317 0-.579-.472-.987-1.187-.987-.7 0-1.181.418-1.18 1.073h.67c-.002-.32.2-.515.505-.515.293 0 .511.183.511.476 0 .265-.163.448-.466.74l-1.187 1.098z" aria-label="0/2" style="font-variant-ligatures:none"/></svg>
