<svg width="120.5" height="60.5" version="1.1" viewBox="0 0 31.882 16.007" xmlns="http://www.w3.org/2000/svg"><g transform="translate(.066146 -1.5214)"><path d="m1.4305 1.5875h11.426c0.79251 0 1.4305 0.63801 1.4305 1.4305v13.014c0 0.79251-0.63801 1.4305-1.4305 1.4305h-11.426c-0.79251 0-1.4305-0.63801-1.4305-1.4305v-13.014c0-0.79251 0.63801-1.4305 1.4305-1.4305z" fill="none" stroke="#777" stroke-linecap="round" stroke-width=".13229"/><path d="m18.893 1.5875h11.426c0.79251 0 1.4305 0.63801 1.4305 1.4305v13.014c0 0.79251-0.63801 1.4305-1.4305 1.4305h-11.426c-0.79251 0-1.4305-0.63801-1.4305-1.4305v-13.014c0-0.79251 0.63801-1.4305 1.4305-1.4305z" fill="none" stroke="#777" stroke-linecap="round" stroke-width=".13229"/><g transform="scale(1.0361 .96516)" fill="#f00" stroke-width="0" style="font-variant-ligatures:none" aria-label="A"><path d="m20.329 9.0464 0.36623-1.1252h1.7805l0.36622 1.1252h1.118l-1.701-4.9344h-1.3444l-1.7034 4.9344zm0.63126-1.9395 0.60716-1.8673h0.03855l0.60716 1.8673z"/></g><g fill="#fff" stroke-width="0" style="font-variant-ligatures:none" aria-label="A"><path d="m3.1101 8.7312 0.35347-1.086h1.7185l0.35347 1.086h1.079l-1.6418-4.7625h-1.2976l-1.6441 4.7625zm0.60927-1.872 0.58601-1.8022h0.037207l0.58601 1.8022z"/></g><path d="m7.2912 6.8971c0 0.58516 0.45235 1.04 1.04 1.04 0.32699 0 0.66143-0.10816 0.80641-0.39581h0.02465c0 0.32699-0.35899 0.59744-0.50407 0.74986-0.17697 0.18442-0.068815 0.44008 0.15977 0.44008h1.5613c0.22618 0 0.33444-0.25565 0.15736-0.44008-0.14508-0.15243-0.50397-0.42287-0.50397-0.74986h0.02696c0.14267 0.28765 0.47942 0.39581 0.8041 0.39581 0.58758 0 1.0424-0.45487 1.0424-1.04 0-1.1015-1.4654-1.5662-2.053-2.7514-0.0492-0.10071-0.12547-0.17698-0.25576-0.17698-0.13029 0-0.20404 0.076161-0.25565 0.17698-0.58768 1.1851-2.0506 1.6498-2.0506 2.7514" fill="#fff" stroke-width=".10491"/><path d="m27.557 8.7312c0.12799 0 0.19308-0.086023 0.32326-0.26273l1.3883-1.8534c0.06281-0.086023 0.10001-0.17214 0.10001-0.26511 0-0.095349-0.03721-0.17909-0.10001-0.26511l-1.3883-1.8557c-0.13018-0.17443-0.19536-0.26045-0.32326-0.26045-0.12551 0-0.1907 0.086023-0.32087 0.26045l-1.3883 1.8557c-0.06281 0.086023-0.10001 0.16976-0.10001 0.26511 0 0.093067 0.03721 0.17909 0.10001 0.26511l1.3883 1.8534c0.13018 0.17661 0.19536 0.26273 0.32087 0.26273" fill="#f00" stroke-width=".099219"/><g fill="#fff" stroke-width=".26458" style="font-variant-ligatures:none" aria-label="0/1"><path d="m4.215 14.677c0.83872 0 1.3452-0.63841 1.3468-1.7377 0.00163-1.0912-0.51138-1.7165-1.3468-1.7165-0.8371 0-1.3452 0.62375-1.3468 1.7165-0.00326 1.096 0.50649 1.7361 1.3468 1.7377zm0-0.58466c-0.38272 0-0.63026-0.38435-0.62864-1.153 0.00163-0.75729 0.24755-1.1384 0.62864-1.1384 0.37946 0 0.62701 0.38109 0.62701 1.1384 0.00163 0.7687-0.24592 1.153-0.62701 1.153z"/><path d="m8.581 11.113h-0.59769l-1.0749 3.9933h0.59769z"/><path d="m11.419 11.269h-0.66284l-0.8257 0.52278v0.62538l0.76381-0.47881h0.01954v2.666h0.70518z"/></g><g fill="#fff" stroke-width=".26458" style="font-variant-ligatures:none" aria-label="0/2"><path d="m21.214 14.677c0.83872 0 1.3452-0.63841 1.3468-1.7377 0.0016-1.0912-0.51138-1.7165-1.3468-1.7165-0.8371 0-1.3452 0.62375-1.3468 1.7165-0.0033 1.096 0.50649 1.7361 1.3468 1.7377zm0-0.58466c-0.38272 0-0.63026-0.38435-0.62864-1.153 0.0016-0.75729 0.24755-1.1384 0.62864-1.1384 0.37946 0 0.62701 0.38109 0.62701 1.1384 0.0016 0.7687-0.24592 1.153-0.62701 1.153z"/><path d="m25.58 11.113h-0.59769l-1.0749 3.9933h0.59769z"/><path d="m26.967 14.604h2.3777v-0.57652h-1.4006v-0.0228l0.48695-0.47718c0.68564-0.62538 0.86967-0.93807 0.86967-1.3175 0-0.57815-0.47229-0.98693-1.1872-0.98693-0.70029 0-1.1807 0.41855-1.1791 1.0732h0.66935c-0.0016-0.3192 0.20032-0.51463 0.50486-0.51463 0.29315 0 0.51138 0.1824 0.51138 0.47555 0 0.26546-0.16286 0.44786-0.46578 0.73938l-1.1872 1.0993z"/></g></g></svg>
