<svg width="640" height="640" version="1.1" viewBox="0 0 169.33 169.33" xmlns="http://www.w3.org/2000/svg"><path d="m25.226 21.167h118.88c8.1121 0 14.643 6.5307 14.643 14.643v97.714c0 8.1121-6.5307 14.643-14.643 14.643h-118.88c-8.1121 0-14.643-6.5307-14.643-14.643v-97.714c0-8.1121 6.5307-14.643 14.643-14.643z" fill="none" stroke="#fff" stroke-linecap="round" stroke-width="4.2333" style="font-variation-settings:'wght' 600"/><g fill="#fff" stroke-width=".26458" style="font-variant-ligatures:none" aria-label="EC"><path d="m42.386 115.57v-61.807h35.983v7.5353h-27.686v18.373h24.723v7.2813h-24.723v21.082h27.686v7.5353z"/><path d="m111.05 116.42q-8.5513 0-13.631-4.7413-4.9953-4.826-4.9953-13.208v-27.686q0-8.2973 4.9953-13.039 5.08-4.826 13.631-4.826 8.4667 0 13.462 4.826 5.08 4.826 5.08 13.039h-8.382q0-4.9953-2.7093-7.7047-2.7093-2.7093-7.4507-2.7093-4.826 0-7.5353 2.7093-2.7093 2.7093-2.7093 7.7047v27.686q0 5.08 2.7093 7.7893 2.7093 2.7093 7.5353 2.7093 4.7413 0 7.4507-2.7093 2.7093-2.7093 2.7093-7.7893h8.382q0 8.2973-5.08 13.123-4.9953 4.826-13.462 4.826z"/></g></svg>
