<svg width="64" height="64" version="1.1" viewBox="0 0 16.933 16.933" xmlns="http://www.w3.org/2000/svg"><g fill="#fff" stroke-width=".26906" style="font-variant-ligatures:none;font-variant-numeric:tabular-nums;font-variation-settings:'wght' 900" aria-label="5"><path d="m3.9519 8.4667q-0.96442 0-1.7102-0.33642-0.74574-0.34203-1.1719-0.94199-0.42614-0.59996-0.43735-1.3793h2.2092q0 0.28596 0.15139 0.49903 0.15139 0.21307 0.40371 0.33082 0.25232 0.11214 0.5551 0.11214 0.34764 0 0.60556-0.14578 0.26353-0.15139 0.40932-0.42053 0.15139-0.26914 0.15139-0.6336 0-0.37007-0.15139-0.63921-0.14578-0.27475-0.40932-0.42053-0.25793-0.15139-0.60556-0.15139-0.36446 0-0.66724 0.17382-0.29718 0.17382-0.44296 0.4766l-1.9961-0.3925 0.32521-4.5978h5.6183v1.8167h-3.7567l-0.157 1.8391h0.044857q0.19625-0.38128 0.67846-0.62799 0.48221-0.24671 1.1158-0.24671 0.5551 0 1.0261 0.19625 0.4766 0.19625 0.82424 0.56071 0.35325 0.35885 0.54389 0.85788 0.19625 0.49342 0.19625 1.0878 0 0.8747-0.41492 1.5476-0.41492 0.67285-1.1719 1.0541-0.75135 0.38128-1.7662 0.38128z"/></g><g fill="#f00" stroke-width=".2764" style="font-variant-ligatures:none;font-variant-numeric:tabular-nums;font-variation-settings:'wght' 900" aria-label="1"><path d="m8.7313 8.4667v-1.8297h6.1312v1.8297zm4.489-8.4667v8.4667h-2.2957v-6.4892h-0.05682l-1.8524 1.2501v-1.9547l1.8979-1.2728z"/></g><g fill="#f00" stroke-width=".25857" style="font-variant-ligatures:none;font-variant-numeric:tabular-nums;font-variation-settings:'wght' 900" aria-label="0"><path d="m3.9688 16.933q-1.1455 0-1.8926-0.50358t-1.1178-1.4443q-0.36523-0.94628-0.36523-2.2799 0-1.3336 0.36523-2.2799 0.37076-0.95181 1.1178-1.4554t1.8926-0.50357q1.1455 0 1.8926 0.50911 0.7526 0.50357 1.1178 1.4499 0.36523 0.94628 0.36523 2.2799 0 1.3336-0.36523 2.2799-0.36523 0.94074-1.1123 1.4443-0.74706 0.50358-1.8981 0.50358zm0-1.8151q0.4095 0 0.65852-0.24349 0.24902-0.24349 0.36523-0.77473 0.11621-0.53678 0.11621-1.3945 0-0.8688-0.11621-1.4056-0.11621-0.53678-0.36523-0.78026-0.24902-0.24902-0.65852-0.24902-0.40397 0-0.65852 0.24902-0.24902 0.24349-0.36523 0.78026-0.11621 0.53678-0.11621 1.4056 0 0.85774 0.11621 1.3945 0.11621 0.53124 0.36523 0.77473 0.25455 0.24349 0.65852 0.24349z"/></g><g fill="#fff" stroke-width=".2764" style="font-variant-ligatures:none;font-variant-numeric:tabular-nums;font-variation-settings:'wght' 900" aria-label="K"><path d="m10.45 15.347v-1.9146q0.22953-0.52624 0.44786-0.94611 0.21833-0.42547 0.50944-0.86214 0.29671-0.43667 0.73898-1.0133l1.6571-2.1441h2.6816l-3.4877 4.2939-0.21274-0.08957zm-1.7187 1.4612v-8.3415h2.2617v1.7915l-0.04479 2.4017 0.04479 1.1029v3.0455zm5.2456 0-2.0098-3.3534 1.4332-1.6571 3.2414 5.0105z"/></g></svg>
