<svg width="48" height="48" version="1.1" viewBox="0 0 12.7 12.7" xmlns="http://www.w3.org/2000/svg" xmlns:xlink="http://www.w3.org/1999/xlink"><defs><linearGradient id="a" x1="9.525" x2="5.2917" y1="14.817" y2="2.1167" gradientTransform="translate(-2.1167 -2.1167)" gradientUnits="userSpaceOnUse"><stop stop-color="#1a2332" offset="0"/><stop stop-color="#414e61" offset="1"/></linearGradient></defs><path d="m0 0h12.7v12.7h-12.7z" fill="url(#a)" stroke-width="0"/><path d="m2.9104 5.5563h6.8792c0.43974 0 0.79375 0.34789 0.79375 0.78003v0.027438c0 0.43214-0.35401 0.78003-0.79375 0.78003h-6.8792c-0.43974 0-0.79375-0.34789-0.79375-0.78003v-0.027438c0-0.43214 0.35401-0.78003 0.79375-0.78003z" fill="#677280" stroke-width="0"/><path d="m3.175 6.35a0.26458 0.26458 0 0 1-0.26458 0.26458 0.26458 0.26458 0 0 1-0.26458-0.26458 0.26458 0.26458 0 0 1 0.26458-0.26458 0.26458 0.26458 0 0 1 0.26458 0.26458z" fill="#fff" stroke-width="0"/><path d="m6.6146 6.35a0.26458 0.26458 0 0 1-0.26458 0.26458 0.26458 0.26458 0 0 1-0.26458-0.26458 0.26458 0.26458 0 0 1 0.26458-0.26458 0.26458 0.26458 0 0 1 0.26458 0.26458z" fill="#fff" stroke-width="0"/><path d="m10.054 6.35a0.26458 0.26458 0 0 1-0.26458 0.26458 0.26458 0.26458 0 0 1-0.26458-0.26458 0.26458 0.26458 0 0 1 0.26458-0.26458 0.26458 0.26458 0 0 1 0.26458 0.26458z" fill="#fff" stroke-width="0"/><path d="m4.2333 10.319a0.52917 0.52917 0 0 1-0.52917 0.52917 0.52917 0.52917 0 0 1-0.52917-0.52917 0.52917 0.52917 0 0 1 0.52917-0.52917 0.52917 0.52917 0 0 1 0.52917 0.52917z" fill="#fff" stroke-linecap="square" stroke-width=".39687" style="paint-order:stroke fill markers"/><path d="m5.0271 8.9958a0.52917 0.52917 0 0 1-0.52917 0.52917 0.52917 0.52917 0 0 1-0.52917-0.52917 0.52917 0.52917 0 0 1 0.52917-0.52917 0.52917 0.52917 0 0 1 0.52917 0.52917z" fill="#fff" stroke-linecap="square" stroke-width=".39687" style="paint-order:stroke fill markers"/><path d="m5.8208 10.319a0.52917 0.52917 0 0 1-0.52917 0.52917 0.52917 0.52917 0 0 1-0.52917-0.52917 0.52917 0.52917 0 0 1 0.52917-0.52917 0.52917 0.52917 0 0 1 0.52917 0.52917z" fill="#fff" stroke-linecap="square" stroke-width=".39687" style="paint-order:stroke fill markers"/><path d="m7.9785 10.82-1.1403-2.2806a0.30902 0.30902 121.72 0 1 0.27639-0.44721h2.175a0.30902 0.30902 58.283 0 1 0.27639 0.44721l-1.1403 2.2806a0.25 0.25 2.8873e-6 0 1-0.44721 0z" fill="#f00"/><path d="m8.4257 1.8802 1.1403 2.2806a0.30902 0.30902 121.72 0 1-0.27639 0.44721h-2.175a0.30902 0.30902 58.283 0 1-0.27639-0.44721l1.1403-2.2806a0.25 0.25-180 0 1 0.44721 0z" fill="#fff"/><path d="m4.3592 4.5545-0.78098-1.1715a0.375 0.375 90 0 1 0-0.41603l0.78098-1.1715a0.16667 0.16667-180 0 1 0.27735 0l0.78098 1.1715a0.375 0.375 90 0 1 0 0.41603l-0.78098 1.1715a0.16667 0.16667 2.4987e-6 0 1-0.27735 0z" fill="#f00"/></svg>
