<svg width="96" height="32" version="1.1" viewBox="0 0 25.4 8.4667" xmlns="http://www.w3.org/2000/svg" xmlns:xlink="http://www.w3.org/1999/xlink"><g fill="#f00"><g transform="scale(1.0077 .9924)" stroke-width=".42476" style="font-variant-ligatures:none" aria-label="10"><path d="m4.742 0.1126h-1.6371l-2.0394 1.2912v1.5446l1.8865-1.1826h0.048269v6.5847h1.7417z"/><path d="m9.9309 8.5315c2.0715 0 3.3225-1.5768 3.3265-4.2919 0.004023-2.695-1.263-4.2396-3.3265-4.2396-2.0675 0-3.3225 1.5406-3.3265 4.2396-0.0080448 2.7071 1.251 4.2879 3.3265 4.2919zm0-1.444c-0.94527 0-1.5567-0.94929-1.5526-2.8479 0.00402-1.8704 0.61141-2.8117 1.5526-2.8117 0.93722 0 1.5486 0.94124 1.5486 2.8117 4e-3 1.8986-0.60738 2.8479-1.5486 2.8479z"/></g><path d="m19.747 8.4667c0.0968 0 0.23512-0.064532 0.33212-0.12455 2.6146-1.6462 4.2471-3.5923 4.2471-5.5567 0-1.6325-1.1207-2.7854-2.6148-2.7854-0.85764 0-1.5494 0.50743-1.9644 1.2868-0.41515-0.77481-1.1113-1.2868-1.9644-1.2868-1.4941 0-2.6148 1.153-2.6148 2.7854 0 1.9644 1.6187 3.9335 4.2426 5.5567 0.10152 0.059809 0.23984 0.12455 0.33664 0.12455" stroke-width=".19675"/></g></svg>
