<svg xmlns="http://www.w3.org/2000/svg" width="96" height="32" viewBox="0 0 25.4 8.467"><g fill="red"><path d="M4.779.112h-1.65L1.074 1.393v1.533l1.9-1.174h.05v6.535h1.754zm5.228 8.355c2.088 0 3.348-1.565 3.352-4.26C13.364 1.533 12.087 0 10.007 0 7.924 0 6.66 1.529 6.655 4.207c-.008 2.687 1.26 4.256 3.352 4.26m0-1.433c-.952 0-1.568-.942-1.564-2.827.004-1.856.616-2.79 1.564-2.79.945 0 1.56.934 1.56 2.79.005 1.885-.611 2.827-1.56 2.827" aria-label="10" style="font-variant-ligatures:none"/><path d="M19.747 8.467c.097 0 .235-.065.332-.125 2.615-1.646 4.247-3.592 4.247-5.557 0-1.632-1.12-2.785-2.615-2.785-.857 0-1.549.507-1.964 1.287C19.332.512 18.636 0 17.783 0c-1.494 0-2.615 1.153-2.615 2.785 0 1.965 1.619 3.934 4.242 5.557.102.06.24.125.337.125"/></g></svg>
