<svg xmlns="http://www.w3.org/2000/svg" width="640" height="640" viewBox="0 0 169.33 169.33"><path fill="none" stroke="#fff" stroke-linecap="round" stroke-width="4.233" d="M25.226 21.167h118.88a14.61 14.61 0 0 1 14.643 14.643v97.714a14.61 14.61 0 0 1-14.643 14.643H25.226a14.61 14.61 0 0 1-14.643-14.643V35.81a14.61 14.61 0 0 1 14.643-14.643z" style="font-variation-settings:&quot;wght&quot;600"/><path fill="#fff" d="M42.386 115.57V53.763h35.983v7.535H50.683v18.373h24.723v7.282H50.683v21.082h27.686v7.535zm68.664.85q-8.551 0-13.631-4.741-4.995-4.826-4.995-13.208V70.785q0-8.298 4.995-13.04 5.08-4.825 13.631-4.825 8.467 0 13.462 4.826 5.08 4.826 5.08 13.039h-8.382q0-4.996-2.71-7.705-2.709-2.71-7.45-2.71-4.826 0-7.535 2.71t-2.71 7.705V98.47q0 5.08 2.71 7.789 2.709 2.71 7.535 2.71 4.741 0 7.45-2.71t2.71-7.79h8.382q0 8.298-5.08 13.124-4.995 4.826-13.462 4.826z" aria-label="EC" style="font-variant-ligatures:none"/></svg>