<svg xmlns="http://www.w3.org/2000/svg" width="48" height="48" viewBox="0 0 12.7 12.7"><defs><linearGradient id="a" x1="7.408" x2="3.175" y1="12.7" gradientUnits="userSpaceOnUse"><stop offset="0" stop-color="#172554"/><stop offset="1" stop-color="#1e3a8a"/></linearGradient><linearGradient id="b" x1="3.175" x2="7.408" y2="12.7" gradientTransform="translate(0 -.265)" gradientUnits="userSpaceOnUse"><stop offset="0" stop-color="#cbd5e1"/><stop offset="1" stop-color="#94a3b8"/></linearGradient></defs><path fill="url(#a)" d="M3.175 0h6.35A3.17 3.17 0 0 1 12.7 3.175v6.35A3.17 3.17 0 0 1 9.525 12.7h-6.35A3.17 3.17 0 0 1 0 9.525v-6.35A3.17 3.17 0 0 1 3.175 0" style="paint-order:stroke fill markers"/><path fill="red" d="m8.224 8.574-.837-1.507a.294.294 120.47 0 1 .257-.438H9.29a.294.294 59.527 0 1 .257.438l-.838 1.507a.278.278 0 0 1-.485 0"/><path fill="#fff" d="m8.71 3.597.837 1.507a.294.294 120.47 0 1-.257.437H7.644a.294.294 59.527 0 1-.257-.437l.837-1.507a.278.278 180 0 1 .486 0"/><path fill="#fff" d="M4.101 8.202a.397.397 0 0 1-.397.397.397.397 0 0 1-.397-.397.397.397 0 0 1 .397-.397.397.397 0 0 1 .397.397m.529-1.058a.397.397 0 0 1-.397.397.397.397 0 0 1-.397-.397.397.397 0 0 1 .397-.397.397.397 0 0 1 .397.397m.53 1.058a.397.397 0 0 1-.397.397.397.397 0 0 1-.397-.397.397.397 0 0 1 .397-.397.397.397 0 0 1 .396.397" style="paint-order:stroke fill markers"/><path fill="none" stroke="url(#b)" stroke-linecap="round" stroke-linejoin="round" stroke-width=".529" d="M10.583 3.44V2.38H8.569c-.306 0-.863 0-1.087.037-.223.038-.449.15-.603.266a2.2 2.2 0 0 0-.441.447c-.088.133-.088.22-.088.309v7.408c.176-.265.334-.501.529-.696s.38-.288.603-.325.632-.037.984-.037h2.117zm-8.467 0V2.38H4.08c.463 0 .923 0 1.14.037s.45.152.526.19c.075.038.605.567.605.611v7.629c-.177-.265-.342-.512-.53-.7a1.1 1.1 0 0 0-.6-.323c-.212-.035-.634-.035-.987-.035H2.116z"/><path fill="#ff0009" d="m3.568 4.712.537.894a.15.15 0 0 0 .257 0l.536-.894a.42.42 90 0 0 0-.428l-.536-.895a.15.15 0 0 0-.257 0l-.537.895a.42.42 90 0 0 0 .428"/></svg>