<svg xmlns="http://www.w3.org/2000/svg" width="64" height="64" viewBox="0 0 16.933 16.933"><path d="M3.952 8.467q-.965 0-1.71-.337-.746-.342-1.172-.942T.632 5.81h2.21q0 .286.151.499t.404.33q.252.113.555.113.347 0 .605-.146.264-.151.41-.42.151-.27.151-.634 0-.37-.151-.64-.146-.274-.41-.42-.258-.151-.605-.151-.365 0-.667.174-.298.174-.443.476L.846 4.598 1.17 0h5.618v1.817H3.032l-.157 1.839h.045q.196-.381.679-.628.482-.247 1.115-.247.556 0 1.027.196.476.197.824.561.353.359.544.858.196.493.196 1.088 0 .874-.415 1.547T5.718 8.085q-.751.382-1.766.382" aria-label="5" style="font-variant-ligatures:none;font-variant-numeric:tabular-nums;font-variation-settings:&quot;wght&quot;900"/><path fill="red" d="M8.731 8.467v-1.83h6.131v1.83zM13.221 0v8.467h-2.296v-6.49h-.057l-1.853 1.25V1.274L10.913 0z" aria-label="1" style="font-variant-ligatures:none;font-variant-numeric:tabular-nums;font-variation-settings:&quot;wght&quot;900"/><path fill="red" d="M3.969 16.933q-1.146 0-1.893-.504T.958 14.985q-.365-.946-.365-2.28t.365-2.28q.371-.951 1.118-1.455t1.893-.504 1.892.51q.753.503 1.118 1.45.365.946.365 2.28t-.365 2.28q-.365.94-1.112 1.443t-1.898.504m0-1.815q.41 0 .658-.244.25-.243.366-.774.116-.537.116-1.395 0-.869-.116-1.405-.117-.537-.366-.78-.249-.25-.658-.25-.404 0-.659.25-.249.243-.365.78-.116.536-.116 1.405 0 .858.116 1.395.116.53.365.774.255.244.659.244" aria-label="0" style="font-variant-ligatures:none;font-variant-numeric:tabular-nums;font-variation-settings:&quot;wght&quot;900"/><path d="M10.45 15.347v-1.915q.23-.526.448-.946.218-.425.51-.862.296-.437.738-1.013l1.657-2.144h2.682l-3.488 4.294-.212-.09zm-1.719 1.461V8.467h2.262v1.791l-.045 2.402.045 1.103v3.045zm5.246 0-2.01-3.353 1.433-1.657 3.242 5.01z" aria-label="K" style="font-variant-ligatures:none;font-variant-numeric:tabular-nums;font-variation-settings:&quot;wght&quot;900"/></svg>