<svg xmlns="http://www.w3.org/2000/svg" width="48" height="48" viewBox="0 0 12.7 12.7"><defs><linearGradient id="a" x1="9.525" x2="5.292" y1="14.817" y2="2.117" gradientTransform="translate(-2.117 -2.117)" gradientUnits="userSpaceOnUse"><stop offset="0" stop-color="#1a2332"/><stop offset="1" stop-color="#414e61"/></linearGradient></defs><path fill="url(#a)" d="M3.175 0h6.35A3.17 3.17 0 0 1 12.7 3.175v6.35A3.17 3.17 0 0 1 9.525 12.7h-6.35A3.17 3.17 0 0 1 0 9.525v-6.35A3.17 3.17 0 0 1 3.175 0"/><path fill="#677280" d="M2.91 5.556h6.88c.44 0 .793.348.793.78v.028c0 .432-.354.78-.793.78H2.91a.785.785 0 0 1-.793-.78v-.028c0-.432.354-.78.793-.78"/><path fill="#fff" d="M3.175 6.35a.265.265 0 0 1-.265.265.265.265 0 0 1-.264-.265.265.265 0 0 1 .264-.265.265.265 0 0 1 .265.265m3.44 0a.265.265 0 0 1-.265.265.265.265 0 0 1-.265-.265.265.265 0 0 1 .265-.265.265.265 0 0 1 .265.265m3.439 0a.265.265 0 0 1-.265.265.265.265 0 0 1-.264-.265.265.265 0 0 1 .264-.265.265.265 0 0 1 .265.265"/><path fill="#fff" d="M4.233 10.319a.53.53 0 0 1-.529.53.53.53 0 0 1-.529-.53.53.53 0 0 1 .53-.53.53.53 0 0 1 .528.53m.794-1.323a.53.53 0 0 1-.53.529.53.53 0 0 1-.528-.53.53.53 0 0 1 .529-.528.53.53 0 0 1 .53.529m.792 1.323a.53.53 0 0 1-.528.53.53.53 0 0 1-.53-.53.53.53 0 0 1 .53-.53.53.53 0 0 1 .529.53" style="paint-order:stroke fill markers"/><path fill="red" d="m7.979 10.82-1.14-2.28a.31.31 121.72 0 1 .276-.448H9.29a.31.31 58.283 0 1 .276.447l-1.14 2.281a.25.25 0 0 1-.448 0"/><path fill="#fff" d="m8.426 1.88 1.14 2.28a.31.31 121.72 0 1-.276.448H7.115a.31.31 58.283 0 1-.277-.447l1.14-2.28a.25.25-180 0 1 .448 0"/><path fill="red" d="m4.36 4.555-.782-1.172a.38.38 90 0 1 0-.416l.781-1.172a.167.167-180 0 1 .278 0l.78 1.172a.38.38 90 0 1 0 .416l-.78 1.172a.167.167 0 0 1-.278 0"/></svg>